<svg xmlns="http://www.w3.org/2000/svg" viewBox="0 0 35 35" width="35" height="35" shape-rendering="crispEdges">
  <rect width="35" height="35" fill="#1c1917"/>
  <!-- Hair - dark messy -->
  <rect x="2" y="4" width="5" height="3" fill="#2d2d2d"/>
  <rect x="7" y="2" width="4" height="3" fill="#2d2d2d"/>
  <rect x="11" y="3" width="5" height="2" fill="#2d2d2d"/>
  <rect x="16" y="2" width="3" height="2" fill="#2d2d2d"/>
  <rect x="19" y="3" width="5" height="2" fill="#2d2d2d"/>
  <rect x="24" y="2" width="4" height="3" fill="#2d2d2d"/>
  <rect x="28" y="4" width="5" height="3" fill="#2d2d2d"/>
  <!-- Face -->
  <rect x="6" y="8" width="23" height="14" fill="#e8c4a0"/>
  <!-- Eyes - intense -->
  <rect x="9" y="12" width="4" height="4" fill="#1c1917"/>
  <rect x="22" y="12" width="4" height="4" fill="#1c1917"/>
  <rect x="10" y="13" width="2" height="2" fill="#f97316"/>
  <rect x="23" y="13" width="2" height="2" fill="#f97316"/>
  <!-- Eyebrows -->
  <rect x="8" y="11" width="6" height="1" fill="#1c1917"/>
  <rect x="21" y="11" width="6" height="1" fill="#1c1917"/>
  <!-- Mustache -->
  <rect x="8" y="18" width="19" height="2" fill="#3d3d3d"/>
  <rect x="11" y="17" width="2" height="2" fill="#3d3d3d"/>
  <rect x="22" y="17" width="2" height="2" fill="#3d3d3d"/>
  <!-- Mouth - stern -->
  <rect x="13" y="20" width="9" height="1" fill="#1c1917"/>
  <!-- Open collar shirt -->
  <rect x="4" y="24" width="27" height="2" fill="#f97316"/>
  <rect x="8" y="26" width="8" height="9" fill="#f97316"/>
  <rect x="19" y="26" width="8" height="9" fill="#f97316"/>
</svg>