<svg xmlns="http://www.w3.org/2000/svg" viewBox="0 0 35 35" width="35" height="35" shape-rendering="crispEdges">
  <rect width="35" height="35" fill="#1c1917"/>
  <!-- Hair - neat -->
  <rect x="4" y="3" width="27" height="5" fill="#3d3d3d"/>
  <!-- Face -->
  <rect x="6" y="8" width="23" height="14" fill="#e8c4a0"/>
  <!-- Eyes -->
  <rect x="10" y="12" width="4" height="4" fill="#1c1917"/>
  <rect x="21" y="12" width="4" height="4" fill="#1c1917"/>
  <rect x="11" y="13" width="2" height="2" fill="#fbbf24"/>
  <rect x="22" y="13" width="2" height="2" fill="#fbbf24"/>
  <!-- Glasses -->
  <rect x="8" y="11" width="8" height="6" fill="none" stroke="#fbbf24" stroke-width="1"/>
  <rect x="19" y="11" width="8" height="6" fill="none" stroke="#fbbf24" stroke-width="1"/>
  <rect x="15" y="13" width="5" height="1" fill="#fbbf24"/>
  <!-- Nose -->
  <rect x="16" y="14" width="3" height="3" fill="#d4b088"/>
  <!-- Mouth -->
  <rect x="13" y="19" width="9" height="2" fill="#1c1917"/>
  <!-- Collar -->
  <rect x="4" y="24" width="27" height="2" fill="#1c1917"/>
  <rect x="8" y="26" width="19" height="9" fill="#10b981"/>
  <rect x="8" y="26" width="19" height="2" fill="#059669"/>
</svg>